<svg xmlns="http://www.w3.org/2000/svg" width="28.347" height="28.344" viewBox="0 0 28.347 28.344">
  <g id="surface1" transform="translate(0 -0.102)">
    <path id="Path_333" data-name="Path 333" d="M28.309,14.256A14.154,14.154,0,1,1,14.154.1,14.154,14.154,0,0,1,28.309,14.256Zm0,0" fill="#f04729"/>
    <path id="Path_334" data-name="Path 334" d="M111.874,61.93c0,.038,0,.076,0,.114A21.723,21.723,0,0,1,93.566,83.495a14.154,14.154,0,0,0,19.128-20.869Q112.3,62.262,111.874,61.93Zm0,0" transform="translate(-88.937 -58.769)" fill="#dd381a"/>
    <path id="Path_335" data-name="Path 335" d="M324.8,321.662a2.929,2.929,0,1,1,2.929-2.928A2.928,2.928,0,0,1,324.8,321.662Zm0-4.881a1.952,1.952,0,1,0,1.952,1.952A1.952,1.952,0,0,0,324.8,316.781Zm0,0" transform="translate(-305.947 -300.085)" fill="#c43117"/>
    <path id="Path_336" data-name="Path 336" d="M149.94,122.393a1.952,1.952,0,1,1,1.952-1.952A1.952,1.952,0,0,1,149.94,122.393Zm0-2.928a.976.976,0,1,0,.976.976A.976.976,0,0,0,149.94,119.465Zm0,0" transform="translate(-140.667 -112.53)" fill="#c43117"/>
    <path id="Path_337" data-name="Path 337" d="M28.232,171.192a8.426,8.426,0,0,1-2.322-1.318,9.435,9.435,0,0,0-5.869-2.058h-.1a9.434,9.434,0,0,0-5.871,2.059,8.449,8.449,0,0,1-5.258,1.845H.85q-.067.483-.1.976H8.815a9.434,9.434,0,0,0,5.871-2.059,8.45,8.45,0,0,1,5.258-1.846h.1a8.452,8.452,0,0,1,5.26,1.846,9.4,9.4,0,0,0,2.592,1.469,5.16,5.16,0,0,0,1.068.263q-.049-.512-.13-1.013A4.049,4.049,0,0,1,28.232,171.192Zm0,0" transform="translate(-0.713 -159.418)" fill="#c43117"/>
    <path id="Path_338" data-name="Path 338" d="M48.972,72.3a8.3,8.3,0,0,0,2.782-.736l.849-.424a6.864,6.864,0,0,1,6.036,0l.848.424a7.769,7.769,0,0,0,3.452.816h9.12q-.335-.5-.711-.976H62.939a6.785,6.785,0,0,1-3.018-.713l-.848-.424a7.854,7.854,0,0,0-6.909,0l-.849.424a6.814,6.814,0,0,1-2.056.589c-.267.329-.522.671-.759,1.025h.422Zm0,0" transform="translate(-46.101 -65.931)" fill="#c43117"/>
    <path id="Path_339" data-name="Path 339" d="M26.367,277.733a4.869,4.869,0,0,0-6.817,0A5.1,5.1,0,0,1,16,279.269H4.32c.058.329.124.655.2.976H16a6.071,6.071,0,0,0,4.236-1.815,3.892,3.892,0,0,1,5.451,0,6.071,6.071,0,0,0,4.236,1.815H32c.08-.321.146-.647.2-.976H29.92A5.1,5.1,0,0,1,26.367,277.733Zm0,0" transform="translate(-4.107 -262.573)" fill="#c43117"/>
    <path id="Path_340" data-name="Path 340" d="M41.88,396.546a3.892,3.892,0,0,1-5.451,0,6.071,6.071,0,0,0-4.236-1.815H21.359q.2.5.446.976H32.194a5.1,5.1,0,0,1,3.552,1.537,4.869,4.869,0,0,0,6.817,0,5.1,5.1,0,0,1,3.552-1.537h.993q.241-.478.446-.976H46.116A6.071,6.071,0,0,0,41.88,396.546Zm0,0" transform="translate(-20.303 -375.106)" fill="#c43117"/>
    <path id="Path_341" data-name="Path 341" d="M204.15,485.964c0-1.366-1.5-2.44-3.416-2.44s-3.417,1.074-3.417,2.44a2.022,2.022,0,0,0,.656,1.45,14.153,14.153,0,0,0,3.737.5c.4,0,.8-.021,1.192-.054A2.246,2.246,0,0,0,204.15,485.964Zm-3.416,1.464c-1.323,0-2.441-.671-2.441-1.464s1.118-1.464,2.441-1.464,2.44.671,2.44,1.464S202.056,487.428,200.733,487.428Zm0,0" transform="translate(-187.555 -459.506)" fill="#c43117"/>
  </g>
</svg>
