<svg xmlns="http://www.w3.org/2000/svg" width="14.664" height="14.664" viewBox="0 0 14.664 14.664">
  <g id="rocket" transform="translate(0 0)">
    <path id="Path_342" data-name="Path 342" d="M59.813,304.207a3.6,3.6,0,0,1-2.188,1.686l.264-.87a6.57,6.57,0,0,1-2,.87,6.525,6.525,0,0,1,.87-2l-.87.264a3.6,3.6,0,0,1,1.686-2.188l2.409-.506Z" transform="translate(-54.289 -292.829)" fill="#fcc400"/>
    <path id="Path_343" data-name="Path 343" d="M9.33,161.61a3.323,3.323,0,0,1-4.573.12A1.307,1.307,0,0,0,5.9,160.545a2.137,2.137,0,0,0-.188-1.056l-2.621-2.621a2.137,2.137,0,0,0-1.056-.188,1.306,1.306,0,0,0-1.185,1.148,3.324,3.324,0,0,1,4.12-5.108l4.891,4.891a3.326,3.326,0,0,1-.535,4Z" transform="translate(0 -147.919)" fill="#e30e08"/>
    <path id="Path_344" data-name="Path 344" d="M79.414,159.59a10.685,10.685,0,0,1-4.378,1.656,2.137,2.137,0,0,0-.188-1.056l-2.621-2.621a2.137,2.137,0,0,0-1.056-.188A10.685,10.685,0,0,1,72.825,153a3.309,3.309,0,0,1,1.28.417L79,158.31A3.306,3.306,0,0,1,79.414,159.59Z" transform="translate(-69.132 -148.62)" fill="#c40606"/>
    <path id="Path_345" data-name="Path 345" d="M110.675,11.57a11.488,11.488,0,0,0,5.567-3.087A11.511,11.511,0,0,0,119.619,0a11.546,11.546,0,0,0-11.565,8.944Z" transform="translate(-104.959 0)" fill="#e3e8ec"/>
    <path id="Path_346" data-name="Path 346" d="M112.469,4.713a21.5,21.5,0,0,0-3.731,4.923l-.681-.681A11.546,11.546,0,0,1,119.622.01,19.083,19.083,0,0,0,112.469,4.713Z" transform="translate(-104.962 -0.006)" fill="#d5d8db"/>
    <g id="Group_23" data-name="Group 23" transform="translate(10.415 0)">
      <path id="Path_347" data-name="Path 347" d="M367.2,4.251A10.456,10.456,0,0,1,365.2,2.682a10.947,10.947,0,0,1-.84-.942,10.015,10.015,0,0,1-.73-1.051A11.568,11.568,0,0,1,367.86.006h.02A11.57,11.57,0,0,1,367.2,4.251Z" transform="translate(-363.635 -0.002)" fill="#e30e08"/>
      <path id="Path_348" data-name="Path 348" d="M496.2,343.948h0" transform="translate(-492.398 -334.096)" fill="#e30e08"/>
    </g>
    <path id="Path_349" data-name="Path 349" d="M367.881.007h0a15.31,15.31,0,0,0-3.515,1.733,10.028,10.028,0,0,1-.73-1.051,11.568,11.568,0,0,1,4.225-.683Z" transform="translate(-353.221 -0.002)" fill="#c40606"/>
    <circle id="Ellipse_22" data-name="Ellipse 22" cx="2.155" cy="2.155" r="2.155" transform="translate(7.378 2.976)" fill="#e30e08"/>
    <circle id="Ellipse_23" data-name="Ellipse 23" cx="1.452" cy="1.452" r="1.452" transform="translate(8.082 3.68)" fill="#a0d9f2"/>
  </g>
</svg>
