<svg xmlns="http://www.w3.org/2000/svg" width="28.027" height="28.02" viewBox="0 0 28.027 28.02">
  <g id="worldwide_1_" data-name="worldwide (1)" transform="translate(0 -0.067)">
    <g id="Group_20" data-name="Group 20" transform="translate(1.09 1.081)">
      <path id="Path_309" data-name="Path 309" d="M291.164,29.783l-1.45.966-2.416-.483-1.45-.483-1.933.483-1.45-.483.966-1.933h1.933l1.894-.947A13.841,13.841,0,0,1,291.164,29.783Z" transform="translate(-268.093 -26.449)" fill="#03aa6f"/>
      <path id="Path_310" data-name="Path 310" d="M31.872,20.005l-.483,1.45-1.45.483-1.45,2.416L26.073,25.8l-3.383.483v1.45l.966.966v1.933l-1.45-.967-1.45-.966-.841-2.527A14.006,14.006,0,0,1,27.6,18.6l1.372.918Z" transform="translate(-19.916 -18.604)" fill="#03aa6f"/>
      <path id="Path_311" data-name="Path 311" d="M80.738,216.29l-.483,2.416-1.933,1.933v1.45l-1.933,1.45v2.416l-1.45-.483-.967-2.416v-4.833l-2.416-.483-.966-1.933v-1.45l.966-.966,1.45-1.45.966,1.933h3.383l1.45,2.416Z" transform="translate(-67.816 -201.358)" fill="#03aa6f"/>
      <path id="Path_312" data-name="Path 312" d="M284.9,115.714a14,14,0,0,1-.773,14.918l-1.3-1.3v-1.933l-.966-1.933-.966-1.933V121.6l-1.45-.966-1.933.483-3.383-1.45-.483-3.383,1.45-1.45h2.9l.966,1.45,2.9.483,2.9-.966Z" transform="translate(-259.75 -109.563)" fill="#03aa6f"/>
    </g>
    <path id="Path_313" data-name="Path 313" d="M16.912,4.9l1.933-.483,1.45.483,2.416.483,1.45-.966a13.8,13.8,0,0,1,2.078,2.817l-.145.082-2.9.966-2.9-.483-.966-1.45h-2.9L14.979,7.8l.483,3.383,3.383,1.45,1.933-.483,1.45.966v1.933l.966,1.933.966,1.933v1.933l1.3,1.3A14.014,14.014,0,0,1,1.09,8.654l.841,2.527,1.45.966,1.45.966-.967.967v1.45l.966,1.933,2.416.483v4.833L8.213,25.2l1.45.483V23.263l1.933-1.45v-1.45l1.933-1.933.483-2.416H12.079L10.63,13.6H7.247L6.28,11.665l-1.45,1.45V11.181l-.966-.966V8.765l3.383-.483,2.416-1.45,1.45-2.416,1.45-.483.483-1.45L10.146,2,8.774,1.081a14.015,14.015,0,0,1,11.482.454l-1.894.947H16.429l-.966,1.933Z" transform="translate(0 0)" fill="#86daf1"/>
  </g>
</svg>
